<?xml version="1.0" standalone="no"?>
<!DOCTYPE svg PUBLIC "-//W3C//DTD SVG 20010904//EN"
 "http://www.w3.org/TR/2001/REC-SVG-20010904/DTD/svg10.dtd">
<svg version="1.0" xmlns="http://www.w3.org/2000/svg"
 width="130" height="54" viewBox="80 0 200 90"
 preserveAspectRatio="xMidYMid meet">

<g transform="translate(0.000000,95.000000) scale(0.100000,-0.100000)"
fill="#000000" stroke="none">
<path d="M790 735 c0 -13 118 -15 1005 -15 887 0 1005 2 1005 15 0 13 -118 15
-1005 15 -887 0 -1005 -2 -1005 -15z"/>
<path d="M790 500 c0 -93 1 -100 20 -100 19 0 20 7 20 100 0 93 -1 100 -20
100 -19 0 -20 -7 -20 -100z"/>
<path d="M880 500 c0 -99 0 -101 23 -98 18 2 23 11 27 48 l5 45 18 -47 c10
-27 23 -48 28 -48 5 0 20 21 32 48 l22 47 3 -47 c3 -40 6 -48 23 -48 18 0 19
8 19 100 0 93 -1 100 -20 100 -14 0 -28 -16 -48 -57 l-29 -56 -29 54 c-20 37
-36 55 -51 57 -23 3 -23 1 -23 -98z"/>
<path d="M1170 500 l-50 -100 25 0 c14 0 28 7 31 15 4 10 21 15 54 15 30 0 52
-6 60 -15 11 -14 50 -22 50 -10 0 18 -97 195 -107 195 -7 0 -35 -45 -63 -100z
m82 -12 c7 -15 4 -18 -22 -18 l-31 0 17 33 c12 22 19 27 22 17 3 -8 9 -23 14
-32z"/>
<path d="M1391 586 c-97 -54 -39 -204 71 -182 46 9 58 24 58 72 l0 44 -45 0
c-38 0 -45 -3 -45 -20 0 -15 7 -20 25 -20 33 0 33 -28 1 -36 -50 -12 -91 39
-67 85 14 25 58 38 81 23 13 -8 22 -7 35 2 17 12 16 14 -6 29 -28 20 -75 21
-108 3z"/>
<path d="M1560 500 c0 -93 1 -100 20 -100 19 0 20 7 20 100 0 93 -1 100 -20
100 -19 0 -20 -7 -20 -100z"/>
<path d="M1654 587 c-3 -8 -4 -52 -2 -98 3 -78 4 -84 26 -87 21 -3 22 0 22 58
l0 61 50 -60 c31 -37 59 -61 70 -61 19 0 20 7 20 100 0 93 -1 100 -20 100 -16
0 -19 -8 -22 -62 l-3 -63 -50 62 c-48 60 -80 78 -91 50z"/>
<path d="M1963 588 c-12 -14 -93 -174 -93 -183 0 -12 48 -4 54 10 4 11 20 15
56 15 36 0 52 -4 56 -15 7 -18 44 -20 44 -2 -1 20 -84 181 -96 185 -6 1 -16
-3 -21 -10z m32 -88 l16 -30 -30 0 c-28 0 -29 1 -18 30 6 17 13 30 14 30 1 0
9 -13 18 -30z"/>
<path d="M2060 580 c0 -16 7 -20 35 -20 l34 0 3 -77 c3 -72 5 -78 26 -81 21
-3 22 -1 22 77 l0 81 35 0 c28 0 35 4 35 20 0 19 -7 20 -95 20 -88 0 -95 -1
-95 -20z"/>
<path d="M2290 500 c0 -93 1 -100 20 -100 19 0 20 7 20 100 0 93 -1 100 -20
100 -19 0 -20 -7 -20 -100z"/>
<path d="M2416 579 c-51 -40 -50 -118 1 -159 38 -29 86 -26 125 9 27 24 33 36
33 71 0 81 -95 129 -159 79z m107 -50 c16 -23 17 -30 7 -50 -16 -29 -29 -39
-54 -39 -49 0 -73 64 -39 102 23 25 61 19 86 -13z"/>
<path d="M2610 499 c0 -98 0 -100 23 -97 19 3 23 10 27 56 l5 54 48 -56 c28
-32 56 -56 68 -56 18 0 19 8 19 100 0 93 -1 100 -20 100 -18 0 -20 -7 -20 -60
0 -33 -3 -60 -7 -59 -5 0 -30 27 -56 60 -29 36 -55 59 -67 59 -19 0 -20 -7
-20 -101z"/>
<path d="M790 245 l0 -25 1005 0 1005 0 0 25 0 25 -1005 0 -1005 0 0 -25z"/>
</g>
<defs>
<clipPath id="clip0_27848_1372">
<rect  width="150" height="80" fill="white"/>
</clipPath>
</defs>
</svg>
