<?xml version="1.0" encoding="utf-8"?><svg viewBox="0 0 612 792" xmlns="http://www.w3.org/2000/svg" xmlns:xlink="http://www.w3.org/1999/xlink"><style>:root>svg{display:none}:root>svg:target{display:block}</style><svg fill="none" viewBox="0 0 40 40" id="Chat" xmlns="http://www.w3.org/2000/svg"><path fill-rule="evenodd" clip-rule="evenodd" d="M36.539 17.611a12.92 12.92 0 01-1.634 4.645c.063.356.095.716.095 1.077 0 1.255-.364 2.456-1.037 3.547-.337.544-.423 1.182-.456 1.604-.038.483-.026 1.012.009 1.52.039.57.109 1.168.189 1.732-.65-.19-1.356-.38-2.029-.532a14.5 14.5 0 00-1.65-.288c-.453-.046-1.107-.082-1.692.107a13.56 13.56 0 01-4.168.643c-1.763 0-3.382-.313-4.802-.856-.341.015-.685.023-1.031.023a22.06 22.06 0 01-5.748-.752C15.213 33.121 19.546 35 24.166 35c1.805 0 3.537-.277 5.134-.786h.015a2.55 2.55 0 01.368.018c.334.035.764.112 1.26.224a38.01 38.01 0 012.961.825c1.834.583 3.61-1.018 3.283-2.878-.141-.801-.288-1.778-.345-2.625a7.402 7.402 0 01-.012-1.032c.008-.106.019-.173.026-.208.937-1.553 1.477-3.322 1.477-5.205 0-2.122-.66-4.06-1.794-5.722z" fill="#6CA589"/><path fill-rule="evenodd" clip-rule="evenodd" d="M9.328 9.497c-2.247 1.718-3.495 3.973-3.495 6.336 0 1.178.306 2.313.882 3.369.22.402.281.816.304 1.097.024.306.012.62-.015.915-.053.589-.18 1.256-.333 1.913a38.712 38.712 0 01-.639 2.359c.88-.32 1.843-.648 2.755-.914a17.944 17.944 0 012.145-.507c.57-.09 1.4-.179 2.112.068 1.6.554 3.391.867 5.289.867 3.578 0 6.757-1.111 9.005-2.83 2.246-1.719 3.495-3.974 3.495-6.337 0-2.363-1.249-4.618-3.495-6.336-2.248-1.72-5.427-2.83-9.005-2.83-3.579 0-6.757 1.11-9.005 2.83zM7.303 6.849c2.88-2.202 6.784-3.516 11.03-3.516 4.245 0 8.15 1.314 11.03 3.516 2.88 2.203 4.803 5.364 4.803 8.984s-1.923 6.781-4.804 8.984c-2.879 2.202-6.784 3.516-11.03 3.516-2.238 0-4.376-.365-6.317-1.029-.002.006-.16-.01-.563.054-.464.073-1.057.217-1.731.414-1.343.392-2.85.946-3.998 1.393-1.99.774-4.016-1.137-3.346-3.172.355-1.079.774-2.442 1.047-3.619.138-.593.227-1.091.26-1.46a2.9 2.9 0 00.014-.285A10.293 10.293 0 012.5 15.833c0-3.62 1.923-6.781 4.804-8.984zm-3.61 13.689l.002.014a.092.092 0 01-.002-.014z" fill="#6CA589"/></svg><svg viewBox="0 0 24 24" id="Facebook" xmlns="http://www.w3.org/2000/svg"><path d="M17.563 1.005L14.786 1c-3.12 0-5.137 2.125-5.137 5.414v2.497H6.857c-.242 0-.437.2-.437.448v3.617c0 .248.196.449.437.449h2.792v9.126c0 .248.195.449.437.449h3.643a.443.443 0 00.437-.449v-9.126h3.265c.241 0 .436-.2.436-.449l.002-3.617a.456.456 0 00-.128-.317.431.431 0 00-.31-.131h-3.265V6.794c0-1.017.236-1.533 1.525-1.533h1.871a.444.444 0 00.437-.45V1.454a.443.443 0 00-.436-.448z" opacity=".6"/></svg><svg id="heart" viewBox="0 0 24 24" xmlns="http://www.w3.org/2000/svg">
<path d="M12 19.7501C11.8012 19.7499 11.6105 19.6708 11.47 19.5301L4.70001 12.7401C3.78387 11.8054 3.27072 10.5488 3.27072 9.24006C3.27072 7.9313 3.78387 6.6747 4.70001 5.74006C5.6283 4.81186 6.88727 4.29042 8.20001 4.29042C9.51274 4.29042 10.7717 4.81186 11.7 5.74006L12 6.00006L12.28 5.72006C12.739 5.25606 13.2857 4.88801 13.8883 4.63736C14.4909 4.3867 15.1374 4.25845 15.79 4.26006C16.442 4.25714 17.088 4.38382 17.6906 4.63274C18.2931 4.88167 18.8402 5.24786 19.3 5.71006C20.2161 6.6447 20.7293 7.9013 20.7293 9.21006C20.7293 10.5188 20.2161 11.7754 19.3 12.7101L12.53 19.5001C12.463 19.5752 12.3815 19.636 12.2904 19.679C12.1994 19.7219 12.1006 19.7461 12 19.7501ZM8.21001 5.75006C7.75584 5.74675 7.30551 5.83342 6.885 6.00505C6.4645 6.17669 6.08215 6.42989 5.76001 6.75006C5.11088 7.40221 4.74646 8.28491 4.74646 9.20506C4.74646 10.1252 5.11088 11.0079 5.76001 11.6601L12 17.9401L18.23 11.6801C18.5526 11.3578 18.8086 10.9751 18.9832 10.5538C19.1578 10.1326 19.2477 9.68107 19.2477 9.22506C19.2477 8.76905 19.1578 8.31752 18.9832 7.89627C18.8086 7.47503 18.5526 7.09233 18.23 6.77006C17.9104 6.44929 17.5299 6.1956 17.1109 6.02387C16.6919 5.85215 16.2428 5.76586 15.79 5.77006C15.3358 5.76675 14.8855 5.85342 14.465 6.02505C14.0445 6.19669 13.6621 6.44989 13.34 6.77006L12.53 7.58006C12.3869 7.71581 12.1972 7.79149 12 7.79149C11.8028 7.79149 11.6131 7.71581 11.47 7.58006L10.66 6.77006C10.3395 6.44628 9.95791 6.18939 9.53733 6.01429C9.11675 5.83919 8.66558 5.74937 8.21001 5.75006Z"/>
</svg><svg viewBox="0 0 24 24" id="Messanger" xmlns="http://www.w3.org/2000/svg"><path d="M12 2C6.478 2 2 6.145 2 11.259c0 2.913 1.454 5.512 3.726 7.21V22l3.405-1.869c.909.252 1.871.388 2.869.388 5.523 0 10-4.145 10-9.259C22 6.146 17.523 2 12 2zm.994 12.469l-2.546-2.716-4.97 2.716 5.467-5.803 2.609 2.716 4.906-2.716-5.466 5.803z" opacity=".6"/></svg><svg viewBox="0 0 24 24" id="Twitter" xmlns="http://www.w3.org/2000/svg"><path d="M22.5 5.772a8.902 8.902 0 01-2.474.65 4.18 4.18 0 001.894-2.28 8.922 8.922 0 01-2.737 1 4.387 4.387 0 00-3.145-1.302c-2.379 0-4.308 1.847-4.308 4.124 0 .323.038.638.112.94-3.58-.173-6.754-1.815-8.879-4.31a3.962 3.962 0 00-.583 2.073c0 1.431.762 2.694 1.916 3.433a4.455 4.455 0 01-1.95-.518v.052c0 1.997 1.485 3.665 3.454 4.044-.36.093-.741.145-1.135.145a4.31 4.31 0 01-.81-.077c.548 1.64 2.138 2.832 4.023 2.865a8.89 8.89 0 01-5.35 1.763c-.348 0-.69-.02-1.028-.057a12.572 12.572 0 006.603 1.856c7.925 0 12.257-6.285 12.257-11.736l-.015-.534a8.412 8.412 0 002.155-2.13z" opacity=".6"/></svg><svg viewBox="0 0 24 24" id="Whatsapp" xmlns="http://www.w3.org/2000/svg"><path d="M22 11.742c0 5.381-4.395 9.743-9.818 9.743a9.835 9.835 0 01-4.746-1.212L2 22l1.772-5.227a9.64 9.64 0 01-1.409-5.03C2.363 6.361 6.76 2 12.182 2 17.605 2 22 6.362 22 11.742zm-9.818-8.19c-4.552 0-8.255 3.674-8.255 8.19 0 1.793.584 3.452 1.573 4.803l-1.032 3.042 3.172-1.009a8.25 8.25 0 004.542 1.355c4.551 0 8.255-3.674 8.255-8.19 0-4.517-3.703-8.191-8.255-8.191zm4.958 10.434c-.06-.1-.221-.16-.462-.278-.24-.12-1.424-.698-1.644-.777-.22-.08-.382-.12-.542.12-.16.238-.621.776-.762.935-.14.16-.28.18-.522.06-.24-.119-1.015-.371-1.935-1.185-.715-.633-1.198-1.414-1.339-1.653-.14-.24-.014-.368.106-.487.108-.107.24-.279.361-.418.12-.14.16-.24.24-.399.081-.16.041-.298-.02-.418-.06-.12-.541-1.295-.742-1.773-.2-.478-.4-.398-.541-.398-.14 0-.3-.02-.461-.02-.16 0-.422.06-.642.299-.22.239-.842.816-.842 1.991 0 1.175.862 2.31.982 2.47.12.159 1.665 2.649 4.111 3.605 2.447.956 2.447.637 2.889.597.44-.04 1.423-.578 1.625-1.135.2-.558.2-1.036.14-1.136z" opacity=".6"/></svg><svg viewBox="0 0 24 24" id="YouTube" xmlns="http://www.w3.org/2000/svg"><path fill-rule="evenodd" clip-rule="evenodd" d="M21.39 4.114a3.007 3.007 0 012.116 2.115c.514 1.878.494 5.792.494 5.792s0 3.895-.494 5.773a3.007 3.007 0 01-2.116 2.115c-1.878.495-9.39.495-9.39.495s-7.493 0-9.39-.514a3.007 3.007 0 01-2.116-2.116C0 15.916 0 12.001 0 12.001S0 8.107.494 6.23A3.068 3.068 0 012.61 4.094C4.488 3.6 12 3.6 12 3.6s7.513 0 9.391.514zm-5.535 7.888L9.608 15.6V8.404l6.247 3.598z" opacity=".6"/></svg><svg fill="green" viewBox="0 0 22.434 22.416" id="durability" xmlns="http://www.w3.org/2000/svg"><g data-name="Layer 2"><path d="M21.98 12.179a8.633 8.633 0 01-1.837-3.055 9.162 9.162 0 10-18.164 1.747H.34a.34.34 0 100 .68h3.284v5.662H.34a.34.34 0 100 .68h5.034a18.915 18.915 0 01.517 4.194.34.34 0 00.679-.008 19.994 19.994 0 00-.489-4.186h6.326a1.669 1.669 0 001.608-2.085 1.561 1.561 0 00.671-2.348 1.463 1.463 0 00-.035-2.2 1.586 1.586 0 00-1.019-2.65h-3.79c.615-2.521-.393-5.944-3.308-4.785a.337.337 0 00-.16.363 7.413 7.413 0 01.2 2.441c-.434 1.472-2.369 2.93-2.89 4.242H2.672a8.482 8.482 0 1116.791-1.706 8.126 8.126 0 002 3.451c.248.369.515.672-.009 1a15.2 15.2 0 01-1.826.867.34.34 0 00-.213.361 13.256 13.256 0 01.036 3.218c-.1.507-1.242.848-2.849.848a1.377 1.377 0 00-1.494 1.443v1.733a.34.34 0 00.68 0V20.35a.72.72 0 01.814-.764c4.1-.021 3.742-1.464 3.517-4.571 1.155-.515 3.237-1.166 1.861-2.836zM4.3 11.211c.435-1.281 2.527-2.835 2.92-4.365a6.8 6.8 0 00-.12-2.495c1.211-.309 2.029.46 2.2 2.169a6.405 6.405 0 01-.222 2.333.342.342 0 00.326.436h4.227a.838.838 0 01.759.847.805.805 0 01-.509.839.34.34 0 000 .68.686.686 0 01.613.712c.008.553-.543.659-.625 1.024.01.351.474.532.443.928a1 1 0 01-.818.95.337.337 0 00-.242.193c-.114.268.184.5.142.777a1 1 0 01-.988.974H4.3zm-2.491 4.53a.34.34 0 01.679 0 .34.34 0 01-.676 0z" data-name="Layer 1"/></g></svg><svg viewBox="0 0 612 792" id="gal" xmlns="http://www.w3.org/2000/svg"><path d="M562 396c0-141.4-114.6-256-256-256S50 254.6 50 396s114.6 256 256 256 256-114.6 256-256zm-60.3-99.7l-241 241-17.2 17.2-133.2-133.2 58.8-58.8 74.5 74.5L443 237.6l58.7 58.7z"/></svg><svg fill="none" viewBox="0 0 40 40" id="iPhone" xmlns="http://www.w3.org/2000/svg"><path fill-rule="evenodd" clip-rule="evenodd" d="M14.166 4.87a2.5 2.5 0 00-2.5 2.5v25.26a2.5 2.5 0 002.5 2.5h11.667a2.5 2.5 0 002.5-2.5V7.37a2.5 2.5 0 00-2.5-2.5h-.139l-.406.974a1.667 1.667 0 01-1.538 1.025h-7.5c-.673 0-1.28-.404-1.539-1.025l-.406-.975h-.139zm-5.833 2.5a5.833 5.833 0 015.833-5.834h11.667a5.833 5.833 0 015.833 5.833v25.26a5.833 5.833 0 01-5.833 5.834H14.166a5.833 5.833 0 01-5.833-5.833V7.37z" fill="#6CA589"/></svg><svg viewBox="0 0 502.664 502.664" id="icon" xmlns="http://www.w3.org/2000/svg"><path d="M153.821 358.226L0 274.337v-46.463l153.821-83.414v54.574L46.636 250.523l107.185 53.431v54.272zm26.273 29.358L282.103 115.08h32.227L212.084 387.584h-31.99zm168.749-29.358v-54.272l107.164-52.999-107.164-52.59v-53.927l153.821 83.522v46.183l-153.821 84.083z"/></svg><svg fill="none" viewBox="0 0 130 22" id="logo" xmlns="http://www.w3.org/2000/svg"><g clip-path="url(#ka)"><path d="M0 11.1C0 5 3.3 1.3 8.7 1.3c4.1 0 7.4 2.5 8 6.2.1.4-.2.7-.6.7h-2.6c-.3 0-.5-.2-.6-.5-.5-1.9-2.1-3.1-4.2-3.1C5.8 4.6 4 7.1 4 11.1s1.8 6.5 4.8 6.5c2.1 0 3.6-1.1 4.2-2.9.1-.3.3-.5.6-.5h2.6c.4 0 .7.4.6.7-.6 3.6-3.8 6-8 6-5.5 0-8.8-3.8-8.8-9.8zm24.3 9.3h-2.9c-.3 0-.5-.2-.5-.5V2.6c0-.4.4-.8.8-.8h7c4.1 0 6.6 2.3 6.6 5.9 0 2.1-1 4-2.7 5-.4.2-.5.7-.3 1l3.1 5.9c.2.3-.1.7-.4.7h-3.3c-.2 0-.4-.1-.5-.3l-2.9-6c-.1-.3-.4-.4-.7-.4h-2.3c-.3 0-.5.2-.5.5V20c.1.2-.2.4-.5.4zm.6-10.2c0 .3.2.5.5.5h3c2 0 3.1-1.1 3.1-2.9 0-1.8-1.2-2.9-3.1-2.9h-2.9c-.3 0-.5.2-.5.5v4.8h-.1zm26.6 10.2h-11c-.4 0-.7-.3-.7-.7V2.5c0-.4.3-.7.7-.7h11c.4 0 .7.3.7.7v1.9c0 .4-.3.7-.7.7h-7.3c-.3 0-.5.2-.5.5V9c0 .3.2.5.5.5H51c.4 0 .7.3.7.7v1.7c0 .4-.3.7-.7.7h-6.8c-.3 0-.5.2-.5.5v3.8c0 .3.2.5.5.5h7.3c.4 0 .7.3.7.7V20c0 .1-.3.4-.7.4zM67 15.9h-5.7c-.3 0-.5.2-.6.4L59.6 20c-.1.3-.3.4-.6.4h-2.6c-.4 0-.7-.4-.6-.8l6-17.4c.1-.2.3-.4.6-.4h3.7c.3 0 .5.2.6.4l6 17.4c.1.4-.2.8-.6.8h-2.9c-.3 0-.5-.2-.6-.4l-1.1-3.7c0-.2-.3-.4-.5-.4zM62.1 13h4.1c.2 0 .3-.2.3-.4l-2.2-7h-.2l-2.2 7c-.1.2 0 .4.2.4zM79 19.7V5.5c0-.3-.2-.5-.5-.5h-4.4c-.4 0-.8-.3-.8-.8V2.5c0-.4.3-.8.8-.8h13.6c.4 0 .8.3.8.8v1.7c0 .4-.3.8-.8.8h-4.4c-.3 0-.5.2-.5.5v14.3c0 .4-.3.7-.7.7h-2.5c-.3-.1-.6-.4-.6-.8zm24.8.7h-11c-.4 0-.7-.3-.7-.7V2.5c0-.4.3-.7.7-.7h11c.4 0 .7.3.7.7v1.9c0 .4-.3.7-.7.7h-7.3c-.3 0-.5.2-.5.5V9c0 .3.2.5.5.5h6.8c.4 0 .7.3.7.7v1.7c0 .4-.3.7-.7.7h-6.8c-.3 0-.5.2-.5.5v3.8c0 .3.2.5.5.5h7.3c.4 0 .7.3.7.7V20c0 .1-.3.4-.7.4z" fill="#1E212C"/><path d="M117.7 9.7l-6.2-8.1c-.4-.4-.9-.6-1.4-.6-.5 0-1 .2-1.4.6-.7.8-.7 2 0 2.8l4.9 6.6-4.9 6.6c-.7.8-.7 2 0 2.8.4.4.9.6 1.4.6.5 0 1-.2 1.4-.6l6.2-8.1c.7-.6.7-1.8 0-2.6zm2.643 0l6.2-8.1c.4-.4.9-.6 1.4-.6.5 0 1 .2 1.4.6.7.8.7 2 0 2.8l-4.9 6.6 4.9 6.6c.7.8.7 2 0 2.8-.4.4-.9.6-1.4.6-.5 0-1-.2-1.4-.6l-6.2-8.1c-.7-.6-.7-1.8 0-2.6z" fill="#FF5A30"/></g><defs><clipPath id="ka"><path fill="#fff" d="M0 0h130v22H0z"/></clipPath></defs></svg><svg version="1.0" viewBox="80 0 200 90" id="logo2" xmlns="http://www.w3.org/2000/svg"><path d="M79 21.5c0 1.3 11.8 1.5 100.5 1.5S280 22.8 280 21.5 268.2 20 179.5 20 79 20.2 79 21.5zM79 45c0 9.3.1 10 2 10s2-.7 2-10-.1-10-2-10-2 .7-2 10zm9 0c0 9.9 0 10.1 2.3 9.8 1.8-.2 2.3-1.1 2.7-4.8l.5-4.5 1.8 4.7c1 2.7 2.3 4.8 2.8 4.8s2-2.1 3.2-4.8l2.2-4.7.3 4.7c.3 4 .6 4.8 2.3 4.8 1.8 0 1.9-.8 1.9-10 0-9.3-.1-10-2-10-1.4 0-2.8 1.6-4.8 5.7l-2.9 5.6-2.9-5.4c-2-3.7-3.6-5.5-5.1-5.7-2.3-.3-2.3-.1-2.3 9.8zm29 0l-5 10h2.5c1.4 0 2.8-.7 3.1-1.5.4-1 2.1-1.5 5.4-1.5 3 0 5.2.6 6 1.5 1.1 1.4 5 2.2 5 1 0-1.8-9.7-19.5-10.7-19.5-.7 0-3.5 4.5-6.3 10zm8.2 1.2c.7 1.5.4 1.8-2.2 1.8h-3.1l1.7-3.3c1.2-2.2 1.9-2.7 2.2-1.7.3.8.9 2.3 1.4 3.2zm13.9-9.8c-9.7 5.4-3.9 20.4 7.1 18.2 4.6-.9 5.8-2.4 5.8-7.2V43h-4.5c-3.8 0-4.5.3-4.5 2 0 1.5.7 2 2.5 2 3.3 0 3.3 2.8.1 3.6-5 1.2-9.1-3.9-6.7-8.5 1.4-2.5 5.8-3.8 8.1-2.3 1.3.8 2.2.7 3.5-.2 1.7-1.2 1.6-1.4-.6-2.9-2.8-2-7.5-2.1-10.8-.3zM156 45c0 9.3.1 10 2 10s2-.7 2-10-.1-10-2-10-2 .7-2 10zm9.4-8.7c-.3.8-.4 5.2-.2 9.8.3 7.8.4 8.4 2.6 8.7 2.1.3 2.2 0 2.2-5.8v-6.1l5 6c3.1 3.7 5.9 6.1 7 6.1 1.9 0 2-.7 2-10s-.1-10-2-10c-1.6 0-1.9.8-2.2 6.2l-.3 6.3-5-6.2c-4.8-6-8-7.8-9.1-5zm30.9-.1c-1.2 1.4-9.3 17.4-9.3 18.3 0 1.2 4.8.4 5.4-1 .4-1.1 2-1.5 5.6-1.5 3.6 0 5.2.4 5.6 1.5.7 1.8 4.4 2 4.4.2-.1-2-8.4-18.1-9.6-18.5-.6-.1-1.6.3-2.1 1zm3.2 8.8l1.6 3h-3c-2.8 0-2.9-.1-1.8-3 .6-1.7 1.3-3 1.4-3 .1 0 .9 1.3 1.8 3zm6.5-8c0 1.6.7 2 3.5 2h3.4l.3 7.7c.3 7.2.5 7.8 2.6 8.1 2.1.3 2.2.1 2.2-7.7V39h3.5c2.8 0 3.5-.4 3.5-2 0-1.9-.7-2-9.5-2s-9.5.1-9.5 2zm23 8c0 9.3.1 10 2 10s2-.7 2-10-.1-10-2-10-2 .7-2 10zm12.6-7.9c-5.1 4-5 11.8.1 15.9 3.8 2.9 8.6 2.6 12.5-.9 2.7-2.4 3.3-3.6 3.3-7.1 0-8.1-9.5-12.9-15.9-7.9zm10.7 5c1.6 2.3 1.7 3 .7 5-1.6 2.9-2.9 3.9-5.4 3.9-4.9 0-7.3-6.4-3.9-10.2 2.3-2.5 6.1-1.9 8.6 1.3zm8.7 3c0 9.8 0 10 2.3 9.7 1.9-.3 2.3-1 2.7-5.6l.5-5.4 4.8 5.6c2.8 3.2 5.6 5.6 6.8 5.6 1.8 0 1.9-.8 1.9-10 0-9.3-.1-10-2-10-1.8 0-2 .7-2 6 0 3.3-.3 6-.7 5.9-.5 0-3-2.7-5.6-6-2.9-3.6-5.5-5.9-6.7-5.9-1.9 0-2 .7-2 10.1zM79 70.5V73h201v-5H79v2.5z"/></svg><svg version="1.0" viewBox="80 0 200 90" id="logo3" xmlns="http://www.w3.org/2000/svg"><path d="M79 21.5c0 1.3 11.8 1.5 100.5 1.5S280 22.8 280 21.5 268.2 20 179.5 20 79 20.2 79 21.5zM79 45c0 9.3.1 10 2 10s2-.7 2-10-.1-10-2-10-2 .7-2 10zm9 0c0 9.9 0 10.1 2.3 9.8 1.8-.2 2.3-1.1 2.7-4.8l.5-4.5 1.8 4.7c1 2.7 2.3 4.8 2.8 4.8s2-2.1 3.2-4.8l2.2-4.7.3 4.7c.3 4 .6 4.8 2.3 4.8 1.8 0 1.9-.8 1.9-10 0-9.3-.1-10-2-10-1.4 0-2.8 1.6-4.8 5.7l-2.9 5.6-2.9-5.4c-2-3.7-3.6-5.5-5.1-5.7-2.3-.3-2.3-.1-2.3 9.8zm29 0l-5 10h2.5c1.4 0 2.8-.7 3.1-1.5.4-1 2.1-1.5 5.4-1.5 3 0 5.2.6 6 1.5 1.1 1.4 5 2.2 5 1 0-1.8-9.7-19.5-10.7-19.5-.7 0-3.5 4.5-6.3 10zm8.2 1.2c.7 1.5.4 1.8-2.2 1.8h-3.1l1.7-3.3c1.2-2.2 1.9-2.7 2.2-1.7.3.8.9 2.3 1.4 3.2zm13.9-9.8c-9.7 5.4-3.9 20.4 7.1 18.2 4.6-.9 5.8-2.4 5.8-7.2V43h-4.5c-3.8 0-4.5.3-4.5 2 0 1.5.7 2 2.5 2 3.3 0 3.3 2.8.1 3.6-5 1.2-9.1-3.9-6.7-8.5 1.4-2.5 5.8-3.8 8.1-2.3 1.3.8 2.2.7 3.5-.2 1.7-1.2 1.6-1.4-.6-2.9-2.8-2-7.5-2.1-10.8-.3zM156 45c0 9.3.1 10 2 10s2-.7 2-10-.1-10-2-10-2 .7-2 10zm9.4-8.7c-.3.8-.4 5.2-.2 9.8.3 7.8.4 8.4 2.6 8.7 2.1.3 2.2 0 2.2-5.8v-6.1l5 6c3.1 3.7 5.9 6.1 7 6.1 1.9 0 2-.7 2-10s-.1-10-2-10c-1.6 0-1.9.8-2.2 6.2l-.3 6.3-5-6.2c-4.8-6-8-7.8-9.1-5zm30.9-.1c-1.2 1.4-9.3 17.4-9.3 18.3 0 1.2 4.8.4 5.4-1 .4-1.1 2-1.5 5.6-1.5 3.6 0 5.2.4 5.6 1.5.7 1.8 4.4 2 4.4.2-.1-2-8.4-18.1-9.6-18.5-.6-.1-1.6.3-2.1 1zm3.2 8.8l1.6 3h-3c-2.8 0-2.9-.1-1.8-3 .6-1.7 1.3-3 1.4-3 .1 0 .9 1.3 1.8 3zm6.5-8c0 1.6.7 2 3.5 2h3.4l.3 7.7c.3 7.2.5 7.8 2.6 8.1 2.1.3 2.2.1 2.2-7.7V39h3.5c2.8 0 3.5-.4 3.5-2 0-1.9-.7-2-9.5-2s-9.5.1-9.5 2zm23 8c0 9.3.1 10 2 10s2-.7 2-10-.1-10-2-10-2 .7-2 10zm12.6-7.9c-5.1 4-5 11.8.1 15.9 3.8 2.9 8.6 2.6 12.5-.9 2.7-2.4 3.3-3.6 3.3-7.1 0-8.1-9.5-12.9-15.9-7.9zm10.7 5c1.6 2.3 1.7 3 .7 5-1.6 2.9-2.9 3.9-5.4 3.9-4.9 0-7.3-6.4-3.9-10.2 2.3-2.5 6.1-1.9 8.6 1.3zm8.7 3c0 9.8 0 10 2.3 9.7 1.9-.3 2.3-1 2.7-5.6l.5-5.4 4.8 5.6c2.8 3.2 5.6 5.6 6.8 5.6 1.8 0 1.9-.8 1.9-10 0-9.3-.1-10-2-10-1.8 0-2 .7-2 6 0 3.3-.3 6-.7 5.9-.5 0-3-2.7-5.6-6-2.9-3.6-5.5-5.9-6.7-5.9-1.9 0-2 .7-2 10.1zM79 70.5V73h201v-5H79v2.5z" fill="#fff"/></svg><svg fill="none" viewBox="0 0 19 22" id="play" xmlns="http://www.w3.org/2000/svg"><path d="M18.5 10.134a1 1 0 010 1.732L2 21.392a1 1 0 01-1.5-.866V1.474A1 1 0 012 .608l16.5 9.526z" fill="#fff"/></svg><svg viewBox="0 0 24 24" fill="green" id="quality" xmlns="http://www.w3.org/2000/svg"><path fill="none" d="M0 0h24v24H0z"/><path d="M4 5v14h16V5H4zM3 3h18a1 1 0 011 1v16a1 1 0 01-1 1H3a1 1 0 01-1-1V4a1 1 0 011-1zm4.5 8.25h2V9H11v6H9.5v-2.25h-2V15H6V9h1.5v2.25zM16.25 15v1.5h-1.5V15H14a1 1 0 01-1-1v-4a1 1 0 011-1h3a1 1 0 011 1v4a1 1 0 01-1 1h-.75zm-1.75-4.5v3h2v-3h-2z"/></svg><svg viewBox="0 0 53 50" id="services-1" xmlns="http://www.w3.org/2000/svg"><path d="M50.977 26.523c.84 0 1.523-.682 1.523-1.523V13.625c0-.841-.682-1.523-1.523-1.523H28.023V2.25c0-.841-.682-1.523-1.523-1.523H10.25c-.841 0-1.523.682-1.523 1.523v9.852H2.023c-.84 0-1.523.682-1.523 1.523V25c0 .841.682 1.523 1.523 1.523h6.704v8.329H2.023c-.84 0-1.523.682-1.523 1.523V47.75c0 .841.682 1.523 1.523 1.523h48.954c.84 0 1.523-.682 1.523-1.523V36.375c0-.841-.682-1.523-1.523-1.523h-6.704v-8.329h6.704zm-1.524-3.046H36.148v-8.329h13.305v8.329zm-16.351 0H19.898v-8.329h13.204v8.329zM11.773 3.773h13.204v8.329H11.773V3.773zM3.547 23.477v-8.329h13.305v8.329H3.547zm8.226 3.046h13.204v8.329H11.773v-8.329zM3.547 37.898h13.305v8.329H3.547v-8.329zm16.351 0h13.204v8.329H19.898v-8.329zm29.555 0v8.329H36.148v-8.329h13.305zm-8.226-3.046H28.023v-8.329h13.204v8.329z"/></svg><svg id="services-2" version="1.1" viewBox="0 0 65 65" xml:space="preserve" xmlns="http://www.w3.org/2000/svg"><style>.qst0{fill:#1c1f20}</style><path class="qst0" d="M9.5 48.8c-.4 0-.8.3-.8.8v14c0 .4.3.8.8.8s.8-.3.8-.8v-14c0-.5-.4-.8-.8-.8zm0-5c-.4 0-.8.3-.8.8v2c0 .4.3.8.8.8s.8-.3.8-.8v-2c0-.5-.4-.8-.8-.8zM60.3 4.5c0-.4-.3-.8-.8-.8h-1.3V2.5c0-.4-.3-.8-.8-.8s-.8.3-.8.8v1.3h-1.3c-.4 0-.8.3-.8.8s.3.8.8.8h1.3v1.3c0 .4.3.8.8.8s.8-.3.8-.8V5.3h1.3c.4 0 .8-.4.8-.8zM5.5 38.8H4.3v-1.3c0-.4-.3-.8-.8-.8s-.8.3-.8.8v1.3H1.5c-.4 0-.8.3-.8.8s.3.8.8.8h1.3v1.3c0 .4.3.8.8.8s.8-.3.8-.8v-1.3h1.3c.4 0 .8-.3.8-.8s-.6-.8-1-.8zm20-32.5h14c.4 0 .8-.3.8-.8s-.3-.8-.8-.8h-14c-.4 0-.8.3-.8.8s.4.8.8.8zm8 48.5c-1.5 0-2.8 1.2-2.8 2.8s1.2 2.8 2.8 2.8 2.8-1.2 2.8-2.8-1.3-2.8-2.8-2.8zm0 4c-.7 0-1.3-.6-1.3-1.3s.6-1.3 1.3-1.3 1.3.6 1.3 1.3-.6 1.3-1.3 1.3zm22.9-44.1c-.5-.3-1.2-.3-1.7 0l-16.3 9.1h-9.8c-.4 0-.8.3-.8.8v10c0 .4.3.8.8.8h9.8l16.3 9.1c.3.1.6.2.9.2.3 0 .6-.1.9-.2.5-.3.9-.9.9-1.5V16.2c-.1-.6-.5-1.2-1-1.5zM29.3 25.3h8.5v8.5h-8.5v-8.5zm26.5 17.5c0 .1-.1.2-.1.2s-.1.1-.2 0l-16.1-9v-9.1l16.1-9c.1-.1.2 0 .2 0s.1.1.1.2v26.7z"/><path class="qst0" d="M50.5 44.4c-.4 0-.8.3-.8.8v5.6H15.3V10.3h34.5v3.6c0 .4.3.8.8.8s.8-.3.8-.8V1.5c0-.4-.3-.8-.8-.8h-36c-.4 0-.8.3-.8.8v62c0 .4.3.8.8.8h36c.4 0 .8-.3.8-.8V45.2c-.1-.4-.5-.8-.9-.8zm-.7-42.1v6.5H15.3V2.3h34.5zM15.3 62.8V52.3h34.5v10.5H15.3z"/><path class="qst0" d="M31.8 38.2c-.2-.4-.6-.6-1-.4-.4.2-.6.6-.4 1l2.4 6c.1.3.4.5.7.5h6c.2 0 .5-.1.6-.3s.2-.5.1-.7l-2.4-6c-.2-.4-.6-.6-1-.4-.4.2-.6.6-.4 1l2 5H34l-2.2-5.7zm29-14c-.4-.2-.8 0-1 .4-.2.4 0 .8.4 1 1.5.7 2.6 2.2 2.6 3.9s-1 3.2-2.6 3.9c-.4.2-.6.6-.4 1 .1.3.4.4.7.4.1 0 .2 0 .3-.1 2.1-.9 3.4-3 3.4-5.3.1-2.2-1.3-4.2-3.4-5.2z"/></svg><svg aria-hidden="true" viewBox="0 0 14 14" id="services-3" xmlns="http://www.w3.org/2000/svg"><path d="M8.686 9.702h-.262a1.456 1.456 0 00-.154-.372l.185-.186a.144.144 0 000-.204l-.305-.305a.144.144 0 00-.204 0l-.186.185a1.454 1.454 0 00-.372-.154v-.262a.142.142 0 00-.142-.144h-.432a.143.143 0 00-.143.144v.262a1.452 1.452 0 00-.371.154l-.186-.185a.144.144 0 00-.204 0l-.306.305a.144.144 0 000 .204l.186.186a1.47 1.47 0 00-.155.372h-.261a.142.142 0 00-.144.142v.432c0 .08.064.143.144.143h.261c.034.13.087.257.155.372l-.186.185a.144.144 0 000 .204l.306.306a.144.144 0 00.203 0L6.3 11.3c.114.068.24.12.371.155v.262c0 .079.063.143.143.143h.432c.08 0 .142-.064.142-.143v-.262a1.45 1.45 0 00.372-.155l.186.186a.144.144 0 00.204 0l.305-.305a.144.144 0 000-.204l-.185-.187c.067-.114.12-.24.154-.371h.262c.08 0 .144-.063.144-.143v-.432a.142.142 0 00-.144-.142zM7.03 10.78a.72.72 0 110-1.44.72.72 0 010 1.44zM4.02 7.06h6.02v.48H4.02zm0-1.2h6.02v.48H4.02zm0-.96h2.56v.48H4.02zm0-.96h2.56v.48H4.02zm3.44-1.02h2.58v2.4H7.46zm-3.44.06h2.56v.48H4.02zm7.565-1.64a.343.343 0 00-.34-.34h-8.49a.343.343 0 00-.34.34v11.32c0 .186.155.34.34.34h8.49c.1 0 .176-.036.23-.091l.01-.009.009-.01a.314.314 0 00.09-.23V1.34zm-.68 10.98h-7.81V1.68h7.81v10.64z"/></svg><svg viewBox="0 0 64 64" id="services-4" xmlns="http://www.w3.org/2000/svg"><path d="M63 2a1 1 0 00-1-1H2a1 1 0 00-1 1v41c0 1.654 1.346 3 3 3h22v9h-4a1 1 0 00-1 1v6a1 1 0 001 1h20a1 1 0 001-1v-6a1 1 0 00-1-1h-4v-9h9v14c0 1.654 1.346 3 3 3h5c1.654 0 3-1.346 3-3v-1c2.757 0 5-2.243 5-5v-7c0-.803-.243-1.548-.652-2.176.402-.519.652-1.15.652-1.824V2zm-2 1v31H3V3h58zM3 43v-7h58v7a.997.997 0 01-.129.486A3.948 3.948 0 0059 43h-4a3.966 3.966 0 00-2.618 1H4c-.552 0-1-.449-1-1zm50 4c0-1.103.897-2 2-2h1v2h2v-2h1c1.103 0 2 .897 2 2v2h-8v-2zM41 61H23v-4h18v4zm-5-6h-8v-9h8v9zm20 5c0 .551-.448 1-1 1h-5c-.552 0-1-.449-1-1V46h2.142A3.939 3.939 0 0051 47v7c0 2.757 2.243 5 5 5v1zm2-3h-2c-1.654 0-3-1.346-3-3v-3h8v3c0 1.654-1.346 3-3 3z"/><path d="M8 32h48a1 1 0 001-1V6a1 1 0 00-1-1H8a1 1 0 00-1 1v25a1 1 0 001 1zM9 7h46v23H9V7z"/><path d="M32 9H12a1 1 0 00-1 1v17a1 1 0 001 1h20a1 1 0 001-1V10a1 1 0 00-1-1zm-1 17H13V11h18v15z"/><path d="M17.475 23.851a.997.997 0 00.972.044l8-4a1.001 1.001 0 00.083-1.743l-8-5A.998.998 0 0017 14v9c0 .347.18.668.475.851zM19 15.804l4.958 3.099L19 21.382v-5.578zM52 9H36a1 1 0 00-1 1v4a1 1 0 001 1h16a1 1 0 001-1v-4a1 1 0 00-1-1zm-1 4H37v-2h14v2zm1 9H36a1 1 0 00-1 1v4a1 1 0 001 1h16a1 1 0 001-1v-4a1 1 0 00-1-1zm-1 4H37v-2h14v2z"/></svg><svg fill="white" viewBox="0 0 24 24" id="to-top" xmlns="http://www.w3.org/2000/svg"><path clip-rule="evenodd" d="M17.53 15.03a.75.75 0 01-1.06 0L12 10.56l-4.47 4.47a.75.75 0 01-1.06-1.06l5-5a.75.75 0 011.06 0l5 5a.75.75 0 010 1.06z" fill="#000" fill-rule="evenodd"/></svg><svg viewBox="0 0 91 91" id="uniq" xmlns="http://www.w3.org/2000/svg"><path d="M13.012 55.145L.449 72.08l14.625 1.684a3.037 3.037 0 012.453 1.85l5.629 13.564 13.34-17.691a39.123 39.123 0 01-23.484-16.342zm65.017-.096a39.124 39.124 0 01-23.225 16.354l13.402 17.775 5.627-13.564a3.026 3.026 0 012.449-1.85l14.586-1.678-12.839-17.037z" fill="#647F94"/><path d="M45.49 16.163c-9.59 0-17.389 7.801-17.389 17.39 0 9.586 7.799 17.385 17.389 17.385 9.588 0 17.391-7.799 17.391-17.385 0-9.589-7.803-17.39-17.391-17.39z" fill="#6EC4A7"/><path d="M78.455 33.552C78.455 15.374 63.668.585 45.492.585c-18.178 0-32.965 14.789-32.965 32.967 0 18.174 14.787 32.961 32.965 32.961 18.176.001 32.963-14.786 32.963-32.961zM45.49 56.996c-12.93 0-23.445-10.516-23.445-23.444 0-12.929 10.516-23.449 23.445-23.449 12.932 0 23.447 10.521 23.447 23.449.001 12.928-10.515 23.444-23.447 23.444z" fill="#647F94"/></svg><svg fill="none" viewBox="0 0 14 14" id="vector" xmlns="http://www.w3.org/2000/svg"><path fill-rule="evenodd" clip-rule="evenodd" d="M8 11.583c.584.416 1.334.083 1.334-.667v-3.75L6.25 10.249 8 11.583zM13.25.416a.805.805 0 00-1.166 0l-2.75 2.75V1.083C9.334.416 8.5-.001 8 .416L5.667 2.333c-.333.166-.667.333-1.083.333H2.667C1.75 2.666 1 3.416 1 4.333v3.333c0 .917.75 1.667 1.667 1.667h.5l-2.75 2.75a.806.806 0 000 1.166.806.806 0 001.167 0L13.25 1.583a.805.805 0 000-1.167z" fill="#fff"/></svg><svg viewBox="0 0 511.996 511.996" id="web-design-svgrepo-com" xmlns="http://www.w3.org/2000/svg"><path d="M244.606 137.494c-26.153 0-47.432 21.278-47.432 47.431s21.278 47.432 47.432 47.432c26.154 0 47.431-21.278 47.431-47.432-.001-26.155-21.278-47.431-47.431-47.431zm0 77.383c-16.515 0-29.953-13.437-29.953-29.953s13.437-29.952 29.953-29.952c16.515 0 29.952 13.437 29.952 29.952-.001 16.516-13.438 29.953-29.952 29.953zm207.466-91.834c-17.141 0-31.087 13.946-31.087 31.087s13.946 31.087 31.087 31.087 31.087-13.946 31.087-31.087c-.001-17.141-13.947-31.087-31.087-31.087zm0 44.695c-7.503 0-13.608-6.105-13.608-13.608s6.104-13.608 13.608-13.608 13.608 6.105 13.608 13.608c-.001 7.504-6.105 13.608-13.608 13.608z"/><path d="M476.794 39.399l-127.09-.005c-19.411 0-35.203 15.797-35.203 35.214v40.122h-52.404l-.034-.001H71.242l-.068.001H37.35C16.755 114.73 0 131.486 0 152.08v224.414c0 20.595 16.755 37.35 37.35 37.35h133.817l-11.799 47.928c-.01.041-.014.083-.023.124a8.89 8.89 0 00-.119.639c-.016.104-.035.207-.048.312a8.662 8.662 0 00-.044.632c-.005.107-.015.216-.016.324 0 .021-.003.041-.003.061 0 .261.016.519.038.774.003.033.001.066.005.099.031.32.083.636.148.946.008.04.021.078.03.119.061.267.132.53.216.787.024.073.054.146.08.219.079.22.164.437.26.649a9.653 9.653 0 00.431.828c.054.091.107.181.164.27.114.179.237.352.364.522.043.058.079.121.125.179l.063.071c.154.192.317.374.486.552.045.048.086.099.133.146.217.218.444.423.683.616.063.051.129.096.193.146.182.14.367.275.559.401.083.054.169.103.254.154a7.68 7.68 0 00.83.442c.197.092.396.175.601.252.09.034.179.068.269.099.212.072.428.133.646.189.089.023.175.049.263.068.231.051.465.09.703.121.079.01.157.027.238.036.315.034.634.055.957.055h174.53a8.74 8.74 0 008.74-8.74 8.74 8.74 0 00-8.74-8.739h-58.021l10.161-41.278 152.849-.005c18.427 0 33.42-14.986 33.42-33.408v-75.6c17.535-1.994 31.204-16.913 31.204-34.972V74.605c.003-19.414-15.791-35.206-35.203-35.206zM359.942 74.605c0-9.774 7.952-17.726 17.727-17.726h99.125c9.775-.001 17.727 7.951 17.727 17.726v10.303H359.942V74.605zm-.001 27.78H494.52v138.593h-4.179l-43.979-48.396a8.741 8.741 0 00-12.936 0L420.94 206.32l-31.006-34.107a8.737 8.737 0 00-12.933.001l-17.059 18.768v-88.597zm106.782 138.593h-14.276l-19.695-21.664 7.142-7.859 26.829 29.523zm-106.78-24.707l.347.315 23.179-25.501 45.358 49.893h-68.884v-24.707zM331.98 74.609c0-8.911 6.609-16.288 15.175-17.53a34.983 34.983 0 00-4.693 17.527V269.86a34.972 34.972 0 004.688 17.518c-8.564-1.245-15.171-8.615-15.171-17.518V74.609zM55.301 311.432l70.306-72.26 93.467 102.804H55.301v-30.544zm147.222-13.656l20.999-23.107 61.163 67.305h-41.991v.001l-40.171-44.199zM41.875 396.364H37.35c-10.957.001-19.871-8.913-19.871-19.87V152.08c0-10.957 8.914-19.871 19.871-19.871h4.525a33.216 33.216 0 00-4.053 15.938V380.43a33.186 33.186 0 004.053 15.934zm224.489 58.758h-87.358l10.161-41.278h87.358l-10.161 41.278zm196.953-74.69c0 8.783-7.151 15.929-15.941 15.929H71.242c-8.79 0-15.941-7.145-15.941-15.929v-20.977h408.016v20.977zm0-38.456H308.303l-78.312-86.178a8.738 8.738 0 00-12.935 0l-26.344 28.987-58.423-64.245a8.738 8.738 0 00-6.318-2.858c-2.434-.008-4.731.916-6.411 2.644l-64.258 66.043V148.148c0-8.778 7.133-15.92 15.907-15.938h243.293v137.65c0 19.41 15.792 35.202 35.203 35.202l113.613.003v36.911zm31.204-72.117c0 9.775-7.952 17.727-17.727 17.727l-99.193-.003c-9.744-.037-17.66-7.972-17.66-17.724v-11.402H494.52v11.402z"/></svg></svg>
